<?xml version="1.0" encoding="UTF-8" standalone="no"?>
<!DOCTYPE svg PUBLIC "-//W3C//DTD SVG 1.1//EN" "http://www.w3.org/Graphics/SVG/1.1/DTD/svg11.dtd">
<svg width="100%" height="100%" viewBox="0 0 563 87" version="1.1" xmlns="http://www.w3.org/2000/svg" xmlns:xlink="http://www.w3.org/1999/xlink" xml:space="preserve" xmlns:serif="http://www.serif.com/" style="fill-rule:evenodd;clip-rule:evenodd;stroke-linecap:round;stroke-linejoin:round;">
    <g transform="matrix(1,0,0,1,0.002,0.002)">
        <g id="p-1" transform="matrix(1,0,0,1,482.762,-116.024)">
            <g>
                <g transform="matrix(1,0,0,1,-719.377,-378.197)">
                    <path d="M798.473,571.606L791.008,571.606L791.008,579.827C791.008,579.983 790.88,580.11 790.724,580.11L773.717,580.11C773.558,580.11 773.433,579.983 773.433,579.827L773.433,571.606L756.992,571.606L756.992,579.827C756.992,579.983 756.865,580.11 756.709,580.11L739.701,580.11C739.542,580.11 739.417,579.983 739.417,579.827L739.417,571.606L722.976,571.606L722.976,579.827C722.976,579.983 722.849,580.11 722.693,580.11L705.685,580.11C705.526,580.11 705.402,579.983 705.402,579.827L705.402,571.606L688.961,571.606L688.961,579.827C688.961,579.983 688.833,580.11 688.677,580.11L671.669,580.11C671.511,580.11 671.386,579.983 671.386,579.827L671.386,571.606L654.945,571.606L654.945,579.827C654.945,579.983 654.817,580.11 654.661,580.11L637.654,580.11C637.495,580.11 637.37,579.983 637.37,579.827L637.37,571.606L620.929,571.606L620.929,579.827C620.929,579.983 620.802,580.11 620.646,580.11L603.638,580.11C603.479,580.11 603.354,579.983 603.354,579.827L603.354,571.606L586.913,571.606L586.913,579.827C586.913,579.983 586.786,580.11 586.63,580.11L569.622,580.11C569.463,580.11 569.339,579.983 569.339,579.827L569.339,571.606L552.898,571.606L552.898,579.827C552.898,579.983 552.77,580.11 552.614,580.11L535.606,580.11C535.448,580.11 535.323,579.983 535.323,579.827L535.323,571.606L518.882,571.606L518.882,579.827C518.882,579.983 518.754,580.11 518.598,580.11L501.591,580.11C501.432,580.11 501.307,579.983 501.307,579.827L501.307,571.606L484.866,571.606L484.866,579.827C484.866,579.983 484.739,580.11 484.583,580.11L381.543,580.11C381.387,580.11 381.26,579.983 381.26,579.827L381.26,571.606L364.819,571.606L364.819,579.827C364.819,579.983 364.691,580.11 364.535,580.11L347.528,580.11C347.372,580.11 347.244,579.983 347.244,579.827L347.244,571.606L330.803,571.606L330.803,579.827C330.803,579.983 330.676,580.11 330.52,580.11L313.512,580.11C313.356,580.11 313.228,579.983 313.228,579.827L313.228,571.606L296.787,571.606L296.787,579.827C296.787,579.983 296.66,580.11 296.504,580.11L279.496,580.11C279.34,580.11 279.213,579.983 279.213,579.827L279.213,571.606L262.772,571.606L262.772,579.827C262.772,579.983 262.644,580.11 262.488,580.11L245.48,580.11C245.324,580.11 245.197,579.983 245.197,579.827L245.197,571.606L236.898,571.606L236.898,494.504L798.473,494.504L798.473,571.606Z" style="fill:none;stroke:black;stroke-width:0.57px;"/>
                </g>
                <g transform="matrix(1,0,0,1,-719.377,-378.197)">
                    <path d="M416.764,580.11L416.764,503.008M421.016,494.504L421.016,571.606M425.268,580.11L425.268,503.008M429.52,494.504L429.52,571.606M433.772,580.11L433.772,503.008M438.024,494.504L438.024,571.606M442.276,580.11L442.276,503.008M446.528,494.504L446.528,571.606M450.78,580.11L450.78,503.008M455.031,494.504L455.031,571.606M459.283,580.11L459.283,503.008" style="fill:none;fill-rule:nonzero;stroke:black;stroke-width:0.57px;"/>
                </g>
            </g>
        </g>
    </g>
</svg>
