<?xml version="1.0" encoding="UTF-8" standalone="no"?>
<!DOCTYPE svg PUBLIC "-//W3C//DTD SVG 1.1//EN" "http://www.w3.org/Graphics/SVG/1.1/DTD/svg11.dtd">
<svg width="100%" height="100%" viewBox="0 0 756 469" version="1.1" xmlns="http://www.w3.org/2000/svg" xmlns:xlink="http://www.w3.org/1999/xlink" xml:space="preserve" xmlns:serif="http://www.serif.com/" style="fill-rule:evenodd;clip-rule:evenodd;stroke-linecap:round;stroke-linejoin:round;">
    <g transform="matrix(1,0,0,1,-61.1471,-370.488)">
        <g transform="matrix(1,0,0,1,51.2527,379.843)">
            <g transform="matrix(1,0,0,1,-18.1686,-28.9134)">
                <path d="M36.85,109.701L28.63,109.701C28.474,109.701 28.346,109.573 28.346,109.417L28.346,92.409C28.346,92.254 28.474,92.126 28.63,92.126L36.85,92.126L36.85,62.929C36.85,62.835 36.882,62.803 36.913,62.803L37.134,62.362C36.978,62.362 36.85,62.49 36.85,62.646C36.85,56.625 38.435,50.709 41.445,45.496C42.524,43.628 43.772,41.873 45.17,40.252C47.673,37.349 50.655,34.873 54,32.941C59.213,29.931 65.129,28.346 71.15,28.346L91.073,28.346L91.073,20.126C91.073,19.97 91.201,19.843 91.357,19.843L108.365,19.843C108.521,19.843 108.648,19.97 108.648,20.126L108.648,28.346L125.089,28.346L125.089,20.126C125.089,19.97 125.217,19.843 125.373,19.843L142.38,19.843C142.536,19.843 142.664,19.97 142.664,20.126L142.664,28.346L159.105,28.346L159.105,20.126C159.105,19.97 159.232,19.843 159.388,19.843L176.396,19.843C176.552,19.843 176.68,19.97 176.68,20.126L176.68,28.346L193.121,28.346L193.121,20.126C193.121,19.97 193.248,19.843 193.404,19.843L210.412,19.843C210.568,19.843 210.695,19.97 210.695,20.126L210.695,28.346L227.136,28.346L227.136,20.126C227.136,19.97 227.264,19.843 227.42,19.843L244.428,19.843C244.584,19.843 244.711,19.97 244.711,20.126L244.711,28.346L261.152,28.346L261.152,20.126C261.152,19.97 261.28,19.843 261.436,19.843L278.443,19.843C278.599,19.843 278.727,19.97 278.727,20.126L278.727,28.346L295.168,28.346L295.168,20.126C295.168,19.97 295.295,19.843 295.451,19.843L312.459,19.843C312.615,19.843 312.743,19.97 312.743,20.126L312.743,28.346L329.184,28.346L329.184,20.126C329.184,19.97 329.311,19.843 329.467,19.843L346.475,19.843C346.631,19.843 346.758,19.97 346.758,20.126L346.758,28.346L363.199,28.346L363.199,20.126C363.199,19.97 363.327,19.843 363.483,19.843L380.491,19.843C380.647,19.843 380.774,19.97 380.774,20.126L380.774,28.346L397.215,28.346L397.215,20.126C397.215,19.97 397.343,19.843 397.499,19.843L414.506,19.843C414.662,19.843 414.79,19.97 414.79,20.126L414.79,28.346L431.231,28.346L431.231,20.126C431.231,19.97 431.358,19.843 431.514,19.843L448.522,19.843C448.678,19.843 448.806,19.97 448.806,20.126L448.806,28.346L465.247,28.346L465.247,20.126C465.247,19.97 465.374,19.843 465.53,19.843L482.538,19.843C482.694,19.843 482.821,19.97 482.821,20.126L482.821,28.346L499.262,28.346L499.262,20.126C499.262,19.97 499.39,19.843 499.546,19.843L516.554,19.843C516.71,19.843 516.837,19.97 516.837,20.126L516.837,28.346L533.278,28.346L533.278,20.126C533.278,19.97 533.406,19.843 533.562,19.843L550.569,19.843C550.725,19.843 550.853,19.97 550.853,20.126L550.853,28.346L567.294,28.346L567.294,20.126C567.294,19.97 567.421,19.843 567.577,19.843L584.585,19.843C584.741,19.843 584.869,19.97 584.869,20.126L584.869,28.346L601.31,28.346L601.31,20.126C601.31,19.97 601.437,19.843 601.593,19.843L618.601,19.843C618.757,19.843 618.884,19.97 618.884,20.126L618.884,28.346L635.325,28.346L635.325,20.126C635.325,19.97 635.453,19.843 635.609,19.843L652.617,19.843C652.773,19.843 652.9,19.97 652.9,20.126L652.9,28.346L669.341,28.346L669.341,20.126C669.341,19.97 669.469,19.843 669.625,19.843L686.632,19.843C686.788,19.843 686.916,19.97 686.916,20.126L686.916,28.346L703.357,28.346L703.357,20.126C703.357,19.97 703.484,19.843 703.64,19.843L720.648,19.843C720.804,19.843 720.932,19.97 720.932,20.126L720.932,28.346L740.491,28.346C746.512,28.346 752.427,29.931 757.64,32.941C762.853,35.952 767.185,40.283 770.195,45.496C773.205,50.709 774.79,56.625 774.79,62.646L774.79,92.126L783.01,92.126C783.166,92.126 783.294,92.254 783.294,92.409L783.294,109.417C783.294,109.573 783.166,109.701 783.01,109.701L774.79,109.701L774.79,126.142L783.01,126.142C783.166,126.142 783.294,126.269 783.294,126.425L783.294,143.433C783.294,143.589 783.166,143.717 783.01,143.717L774.79,143.717L774.79,160.157L783.01,160.157C783.166,160.157 783.294,160.285 783.294,160.441L783.294,177.449C783.294,177.605 783.166,177.732 783.01,177.732L774.79,177.732L774.79,194.173L783.01,194.173C783.166,194.173 783.294,194.301 783.294,194.457L783.294,211.465C783.294,211.62 783.166,211.748 783.01,211.748L774.79,211.748L774.79,228.189L783.01,228.189C783.166,228.189 783.294,228.317 783.294,228.472L783.294,245.48C783.294,245.636 783.166,245.764 783.01,245.764L774.79,245.764L774.79,262.205L783.01,262.205C783.166,262.205 783.294,262.332 783.294,262.488L783.294,279.496C783.294,279.652 783.166,279.78 783.01,279.78L774.79,279.78L774.79,296.22L783.01,296.22C783.166,296.22 783.294,296.348 783.294,296.504L783.294,313.512C783.294,313.668 783.166,313.795 783.01,313.795L774.79,313.795L774.79,330.236L783.01,330.236C783.166,330.236 783.294,330.364 783.294,330.52L783.294,347.528C783.294,347.683 783.166,347.811 783.01,347.811L774.79,347.811L774.79,364.252L783.01,364.252C783.166,364.252 783.294,364.38 783.294,364.535L783.294,381.543C783.294,381.699 783.166,381.827 783.01,381.827L774.79,381.827L774.79,398.268L783.01,398.268C783.166,398.268 783.294,398.395 783.294,398.551L783.294,415.559C783.294,415.715 783.166,415.843 783.01,415.843L774.79,415.843L774.79,445.039C774.79,445.134 774.758,445.165 774.727,445.165L774.506,445.606C774.662,445.606 774.79,445.479 774.79,445.323C774.79,451.344 773.205,457.26 770.195,462.472C769.116,464.34 767.868,466.095 766.47,467.717C763.967,470.62 760.985,473.095 757.64,475.027C752.427,478.037 746.512,479.622 740.491,479.622L720.567,479.622L720.567,487.843C720.567,487.998 720.439,488.126 720.283,488.126L703.276,488.126C703.12,488.126 702.992,487.998 702.992,487.843L702.992,479.622L686.551,479.622L686.551,487.843C686.551,487.998 686.424,488.126 686.268,488.126L669.26,488.126C669.104,488.126 668.976,487.998 668.976,487.843L668.976,479.622L652.535,479.622L652.535,487.843C652.535,487.998 652.408,488.126 652.252,488.126L635.244,488.126C635.088,488.126 634.961,487.998 634.961,487.843L634.961,479.622L618.52,479.622L618.52,487.843C618.52,487.998 618.392,488.126 618.236,488.126L601.228,488.126C601.072,488.126 600.945,487.998 600.945,487.843L600.945,479.622L584.504,479.622L584.504,487.843C584.504,487.998 584.376,488.126 584.22,488.126L567.213,488.126C567.057,488.126 566.929,487.998 566.929,487.843L566.929,479.622L550.488,479.622L550.488,487.843C550.488,487.998 550.361,488.126 550.205,488.126L533.197,488.126C533.041,488.126 532.913,487.998 532.913,487.843L532.913,479.622L516.472,479.622L516.472,487.843C516.472,487.998 516.345,488.126 516.189,488.126L499.181,488.126C499.025,488.126 498.898,487.998 498.898,487.843L498.898,479.622L482.457,479.622L482.457,487.843C482.457,487.998 482.329,488.126 482.173,488.126L465.165,488.126C465.009,488.126 464.882,487.998 464.882,487.843L464.882,479.622L448.441,479.622L448.441,487.843C448.441,487.998 448.313,488.126 448.157,488.126L431.15,488.126C430.994,488.126 430.866,487.998 430.866,487.843L430.866,479.622L414.425,479.622L414.425,487.843C414.425,487.998 414.298,488.126 414.142,488.126L397.134,488.126C396.978,488.126 396.85,487.998 396.85,487.843L396.85,479.622L380.409,479.622L380.409,487.843C380.409,487.998 380.282,488.126 380.126,488.126L363.118,488.126C362.962,488.126 362.835,487.998 362.835,487.843L362.835,479.622L346.394,479.622L346.394,487.843C346.394,487.998 346.266,488.126 346.11,488.126L329.102,488.126C328.946,488.126 328.819,487.998 328.819,487.843L328.819,479.622L312.378,479.622L312.378,487.843C312.378,487.998 312.25,488.126 312.094,488.126L295.087,488.126C294.931,488.126 294.803,487.998 294.803,487.843L294.803,479.622L278.362,479.622L278.362,487.843C278.362,487.998 278.235,488.126 278.079,488.126L261.071,488.126C260.915,488.126 260.787,487.998 260.787,487.843L260.787,479.622L244.346,479.622L244.346,487.843C244.346,487.998 244.219,488.126 244.063,488.126L227.055,488.126C226.899,488.126 226.772,487.998 226.772,487.843L226.772,479.622L210.331,479.622L210.331,487.843C210.331,487.998 210.203,488.126 210.047,488.126L193.039,488.126C192.883,488.126 192.756,487.998 192.756,487.843L192.756,479.622L176.315,479.622L176.315,487.843C176.315,487.998 176.187,488.126 176.031,488.126L159.024,488.126C158.868,488.126 158.74,487.998 158.74,487.843L158.74,479.622L142.299,479.622L142.299,487.843C142.299,487.998 142.172,488.126 142.016,488.126L125.008,488.126C124.852,488.126 124.724,487.998 124.724,487.843L124.724,479.622L108.283,479.622L108.283,487.843C108.283,487.998 108.156,488.126 108,488.126L90.992,488.126C90.836,488.126 90.709,487.998 90.709,487.843L90.709,479.622L71.15,479.622C65.129,479.622 59.213,478.037 54,475.027C48.787,472.017 44.456,467.685 41.445,462.472C38.435,457.26 36.85,451.344 36.85,445.323L36.85,415.843L28.63,415.843C28.474,415.843 28.346,415.715 28.346,415.559L28.346,398.551C28.346,398.395 28.474,398.268 28.63,398.268L36.85,398.268L36.85,381.827L28.63,381.827C28.474,381.827 28.346,381.699 28.346,381.543L28.346,364.535C28.346,364.38 28.474,364.252 28.63,364.252L36.85,364.252L36.85,347.811L28.63,347.811C28.474,347.811 28.346,347.683 28.346,347.528L28.346,330.52C28.346,330.364 28.474,330.236 28.63,330.236L36.85,330.236L36.85,313.795L28.63,313.795C28.474,313.795 28.346,313.668 28.346,313.512L28.346,296.504C28.346,296.348 28.474,296.22 28.63,296.22L36.85,296.22L36.85,279.78L28.63,279.78C28.474,279.78 28.346,279.652 28.346,279.496L28.346,262.488C28.346,262.332 28.474,262.205 28.63,262.205L36.85,262.205L36.85,245.764L28.63,245.764C28.474,245.764 28.346,245.636 28.346,245.48L28.346,228.472C28.346,228.317 28.474,228.189 28.63,228.189L36.85,228.189L36.85,211.748L28.63,211.748C28.474,211.748 28.346,211.62 28.346,211.465L28.346,194.457C28.346,194.301 28.474,194.173 28.63,194.173L36.85,194.173L36.85,177.732L28.63,177.732C28.474,177.732 28.346,177.605 28.346,177.449L28.346,160.441C28.346,160.285 28.474,160.157 28.63,160.157L36.85,160.157L36.85,143.717L28.63,143.717C28.474,143.717 28.346,143.589 28.346,143.433L28.346,126.425C28.346,126.269 28.474,126.142 28.63,126.142L36.85,126.142L36.85,109.701Z" style="fill:none;stroke:black;stroke-width:0.57px;"/>
            </g>
        </g>
    </g>
</svg>
