<?xml version="1.0" encoding="UTF-8" standalone="no"?>
<!DOCTYPE svg PUBLIC "-//W3C//DTD SVG 1.1//EN" "http://www.w3.org/Graphics/SVG/1.1/DTD/svg11.dtd">
<svg width="100%" height="100%" viewBox="0 0 726 269" version="1.1" xmlns="http://www.w3.org/2000/svg" xmlns:xlink="http://www.w3.org/1999/xlink" xml:space="preserve" xmlns:serif="http://www.serif.com/" style="fill-rule:evenodd;clip-rule:evenodd;stroke-linejoin:round;stroke-miterlimit:2;">
    <g transform="matrix(1,0,0,1,-75.547,-555.859)">
        <g transform="matrix(16.5143,0,0,7.14859,-1266.5,-3276.9)">
            <path d="M103.708,536.155L123.502,536.155C124.177,536.155 125.195,538.572 125.195,540.13L125.195,569.775C125.195,571.333 124.177,573.773 123.502,573.773L83.035,573.773C82.36,573.773 81.266,571.333 81.266,569.775L81.266,540.13C81.266,538.572 82.36,536.155 83.035,536.155L102.832,536.155L102.832,537.345L83.035,537.345C82.644,537.345 81.781,539.229 81.781,540.13L81.781,557.912L102.832,557.912L102.832,559.116L81.781,559.116L81.781,569.775C81.781,570.677 82.644,572.583 83.035,572.583L123.502,572.583C123.893,572.583 124.68,570.677 124.68,569.775L124.68,559.116L103.708,559.116L103.708,557.912L124.68,557.912L124.68,540.13C124.68,539.229 123.893,537.345 123.502,537.345L103.708,537.345L103.708,536.155Z" style="fill:rgb(255,8,0);"/>
        </g>
    </g>
</svg>
