<?xml version="1.0" encoding="UTF-8" standalone="no"?>
<!DOCTYPE svg PUBLIC "-//W3C//DTD SVG 1.1//EN" "http://www.w3.org/Graphics/SVG/1.1/DTD/svg11.dtd">
<svg width="100%" height="100%" viewBox="0 0 755 800" version="1.1" xmlns="http://www.w3.org/2000/svg" xmlns:xlink="http://www.w3.org/1999/xlink" xml:space="preserve" xmlns:serif="http://www.serif.com/" style="fill-rule:evenodd;clip-rule:evenodd;stroke-linejoin:round;stroke-miterlimit:2;">
    <g transform="matrix(1,0,0,1,-61.4305,-39.685)">
        <g id="Back" transform="matrix(1.23865,0,0,1.23636,214.152,170.825)">
            <path d="M486.196,187.4C486.195,250.45 485.901,504.37 485.901,504.37C485.901,524.3 469.331,540.48 449.438,540.48L-87.252,540.48C-107.146,540.48 -123.296,524.3 -123.296,504.37L-123.044,146.131C-123.044,91.105 -120.071,-106.069 84.918,-106.069C275.654,-106.069 235.509,61.018 343.414,91.105C376.304,100.276 428.153,83.396 458.734,114.033C483.007,138.351 486.196,168.6 486.196,187.4ZM-35.749,115.816L-35.749,129.462C-35.749,129.63 -35.846,129.785 -35.999,129.867C-38.559,131.177 -40.663,133.215 -42.047,135.712C-43.431,138.209 -44.026,141.057 -43.763,143.891C-43.496,146.729 -42.384,149.417 -40.557,151.624C-38.734,153.834 -36.289,155.454 -33.526,156.282C-30.767,157.114 -27.814,157.114 -25.055,156.282C-22.292,155.454 -19.846,153.834 -18.024,151.624C-16.197,149.417 -15.085,146.729 -14.817,143.891C-14.554,141.057 -15.15,138.209 -16.534,135.712C-17.918,133.215 -20.022,131.177 -22.582,129.867C-22.734,129.785 -22.831,129.63 -22.831,129.462L-22.831,115.816C-22.831,114.697 -23.131,113.6 -23.699,112.631C-24.262,111.663 -25.078,110.857 -26.061,110.302C-27.044,109.743 -28.155,109.447 -29.29,109.447C-30.425,109.447 -31.537,109.743 -32.52,110.302C-33.503,110.857 -34.319,111.663 -34.882,112.631C-35.45,113.6 -35.749,114.697 -35.749,115.816ZM385.731,115.816L385.731,129.462C385.731,129.63 385.634,129.785 385.481,129.867C382.921,131.177 380.817,133.215 379.433,135.712C378.049,138.209 377.454,141.057 377.717,143.891C377.984,146.729 379.096,149.417 380.923,151.624C382.746,153.834 385.191,155.454 387.954,156.282C390.713,157.114 393.666,157.114 396.425,156.282C399.188,155.454 401.634,153.834 403.456,151.624C405.283,149.417 406.395,146.729 406.663,143.891C406.925,141.057 406.33,138.209 404.946,135.712C403.562,133.215 401.458,131.177 398.898,129.867C398.746,129.785 398.649,129.63 398.649,129.462L398.649,115.816C398.649,114.697 398.349,113.6 397.781,112.631C397.218,111.663 396.402,110.857 395.419,110.302C394.436,109.743 393.325,109.447 392.19,109.447C391.055,109.447 389.943,109.743 388.96,110.302C387.977,110.857 387.161,111.663 386.598,112.631C386.03,113.6 385.731,114.697 385.731,115.816Z" style="fill:rgb(111,65,0);"/>
        </g>
    </g>
</svg>
