<?xml version="1.0" encoding="UTF-8" standalone="no"?>
<!DOCTYPE svg PUBLIC "-//W3C//DTD SVG 1.1//EN" "http://www.w3.org/Graphics/SVG/1.1/DTD/svg11.dtd">
<svg width="100%" height="100%" viewBox="0 0 647 160" version="1.1" xmlns="http://www.w3.org/2000/svg" xmlns:xlink="http://www.w3.org/1999/xlink" xml:space="preserve" xmlns:serif="http://www.serif.com/" style="fill-rule:evenodd;clip-rule:evenodd;stroke-linejoin:round;stroke-miterlimit:2;">
    <g transform="matrix(1,0,0,1,-115.754,-555.682)">
        <g transform="matrix(0.850394,0,0,2.8847,-88.3401,-1246.8)">
            <path d="M1000,624.841L1000,680.157L960,680.157L960,624.841L1000,624.841ZM939.944,624.841L939.944,680.157L899.944,680.157L899.944,624.841L939.944,624.841ZM880,624.841L880,680.155L840,680.157L840,624.841L880,624.841ZM760,624.841L760,680.155L720,680.155L720,624.841L760,624.841ZM700,624.841L700,680.155L660,680.155L660,624.841L700,624.841ZM580,624.841L580,680.155L540,680.155L540,624.841L580,624.841ZM519.944,624.841L519.944,680.155L479.944,680.155L479.944,624.841L519.944,624.841ZM460,624.841L460,680.155L420,680.155L420,624.841L460,624.841ZM340,624.841L340,680.155L300,680.155L300,624.841L340,624.841ZM280,624.841L280,680.157L240,680.157L240,624.841L280,624.841Z"/>
        </g>
    </g>
</svg>
