<?xml version="1.0" encoding="UTF-8" standalone="no"?>
<!DOCTYPE svg PUBLIC "-//W3C//DTD SVG 1.1//EN" "http://www.w3.org/Graphics/SVG/1.1/DTD/svg11.dtd">
<svg width="100%" height="100%" viewBox="0 0 726 270" version="1.1" xmlns="http://www.w3.org/2000/svg" xmlns:xlink="http://www.w3.org/1999/xlink" xml:space="preserve" xmlns:serif="http://www.serif.com/" style="fill-rule:evenodd;clip-rule:evenodd;stroke-linejoin:round;stroke-miterlimit:2;">
    <g transform="matrix(1,0,0,1,-75.547,-555.591)">
        <g id="White-Keys" serif:id="White Keys" transform="matrix(1.13386,0,0,4.55437,-187.552,-2280.44)">
            <path d="M845.667,681.89L259.375,681.89C248.682,681.89 232.039,677.805 232.039,675.143L232.039,629.396C232.039,626.734 248.682,622.706 259.375,622.706L267.5,622.706L267.5,657.668L280,657.668L280,657.854L285,657.854L285,657.668L297.5,657.668L297.5,622.726L312.5,622.726L312.5,657.668L325,657.668L325,657.854L330,657.854L330,657.668L342.5,657.668L342.5,622.726L402.5,622.726L402.5,657.761L432.5,657.761L432.5,622.726L447.458,622.726L447.458,657.761L477.458,657.761L477.458,622.726L492.5,622.726L492.5,657.761L522.5,657.761L522.5,622.726L582.5,622.726L582.5,657.761L612.5,657.761L612.5,622.726L627.5,622.726L627.5,657.761L657.5,657.761L657.5,622.726L717.5,622.726L717.5,657.761L747.5,657.762L747.5,622.726L762.458,622.726L762.458,657.762L792.458,657.762L792.458,622.726L807.5,622.726L807.5,657.761L837.5,657.761L837.5,622.726L845.667,622.726C855.931,622.726 871.229,626.564 871.887,629.079L872.036,675.461C871.377,677.975 855.931,681.89 845.667,681.89Z" style="fill:white;"/>
        </g>
    </g>
</svg>
