<?xml version="1.0" encoding="UTF-8" standalone="no"?>
<!DOCTYPE svg PUBLIC "-//W3C//DTD SVG 1.1//EN" "http://www.w3.org/Graphics/SVG/1.1/DTD/svg11.dtd">
<svg width="100%" height="100%" viewBox="0 0 755 800" version="1.1" xmlns="http://www.w3.org/2000/svg" xmlns:xlink="http://www.w3.org/1999/xlink" xml:space="preserve" xmlns:serif="http://www.serif.com/" style="fill-rule:evenodd;clip-rule:evenodd;stroke-linejoin:round;stroke-miterlimit:2;">
    <g transform="matrix(1,0,0,1,-61.4305,-39.685)">
        <g id="Piano-Top" serif:id="Piano Top" transform="matrix(1.23865,0,0,1.23636,214.152,170.825)">
            <path d="M486.196,187.4C486.195,250.45 485.901,504.37 485.901,504.37C485.901,524.3 469.331,540.48 449.438,540.48L-87.252,540.48C-107.146,540.48 -123.296,524.3 -123.296,504.37L-123.044,146.131C-123.044,91.105 -120.071,-106.069 84.918,-106.069C275.654,-106.069 235.509,61.018 343.414,91.105C376.304,100.276 428.153,83.396 458.734,114.033C483.007,138.351 486.196,168.6 486.196,187.4ZM-68.372,440.345L-79.815,440.345L-79.815,318.086L-87.252,318.086C-97.041,318.086 -104.988,326.048 -104.988,335.854L-104.988,504.37C-104.988,514.177 -97.041,522.139 -87.252,522.139L-68.372,522.139L-68.372,440.345ZM343.414,440.341L332.114,440.341L332.114,318.086L306.798,318.086L306.798,522.139L343.414,522.139L343.414,440.341ZM-11.16,318.086L-11.16,440.345L-22.603,440.345L-22.603,522.139L14.013,522.139L14.013,318.086L-11.16,318.086ZM400.731,318.086L400.74,440.346L389.327,440.346L389.327,522.139L425.943,522.139L425.943,440.345L414.5,440.345L414.5,318.086L400.731,318.086ZM219.978,440.341L208.535,440.341L208.535,318.086L183.362,318.086L183.362,522.139L219.978,522.139L219.978,440.341ZM441.962,318.086L441.962,440.345L430.52,440.345L430.52,522.139L449.438,522.139C458.833,522.139 466.533,514.803 467.135,505.541L467.135,334.683C466.533,325.421 458.833,318.086 449.438,318.086L441.962,318.086ZM277.19,318.086L277.19,440.341L265.748,440.341L265.748,522.139L302.364,522.139L302.364,318.086L277.19,318.086ZM153.612,318.086L153.612,440.341L142.169,440.341L142.169,522.139L178.785,522.139L178.785,318.086L153.612,318.086ZM71.226,318.086L71.226,440.341L59.783,440.341L59.783,522.139L96.399,522.139L96.399,440.341L84.918,440.341L84.918,318.086L71.226,318.086ZM235.997,318.086L235.997,440.341L224.555,440.341L224.555,522.139L261.171,522.139L261.171,440.341L249.728,440.341L249.728,318.086L235.997,318.086ZM-52.353,318.086L-52.353,440.345L-63.795,440.345L-63.795,522.139L-27.18,522.139L-27.18,440.345L-38.622,440.345L-38.622,318.086L-52.353,318.086ZM112.38,318.086L112.38,440.341L100.976,440.341L100.976,522.139L137.592,522.139L137.592,440.341L126.15,440.341L126.15,318.086L112.38,318.086ZM359.576,318.086L359.576,440.341L348.134,440.341L348.134,522.139L384.75,522.139L384.75,440.346L373.269,440.346L373.269,318.086L359.576,318.086ZM55.063,440.341L43.764,440.341L43.764,318.086L18.447,318.086L18.447,522.139L55.063,522.139L55.063,440.341ZM232.012,318.086C232.012,318.086 212.559,318.086 212.559,318.086L212.559,436.328C212.559,436.328 232.012,436.328 232.012,436.328L232.012,318.086ZM437.976,318.086C437.976,318.086 418.524,318.086 418.524,318.086L418.524,436.333C418.524,436.333 437.976,436.333 437.976,436.333L437.976,318.086ZM-56.339,318.086L-75.696,318.086C-75.758,318.086 -75.791,318.086 -75.791,318.086L-75.791,436.333C-75.791,436.333 -56.339,436.333 -56.339,436.333L-56.339,318.086ZM149.626,318.086C149.626,318.086 130.174,318.086 130.174,318.086L130.174,436.328C130.174,436.328 149.626,436.328 149.626,436.328L149.626,318.086ZM396.745,318.086C396.745,318.086 377.293,318.086 377.293,318.086L377.293,436.333C377.293,436.333 396.745,436.333 396.745,436.333L396.745,318.086ZM108.394,318.086C108.394,318.086 88.942,318.086 88.942,318.086L88.942,436.328C88.942,436.328 108.394,436.328 108.394,436.328L108.394,318.086ZM-15.146,318.086C-15.146,318.086 -34.598,318.086 -34.598,318.086L-34.598,436.333C-34.598,436.333 -15.146,436.333 -15.146,436.333L-15.146,318.086ZM273.204,318.086C273.204,318.086 253.752,318.086 253.752,318.086L253.752,436.328C253.752,436.328 273.204,436.328 273.204,436.328L273.204,318.086ZM67.24,318.086C67.24,318.086 47.788,318.086 47.788,318.086L47.788,436.328L67.24,436.328L67.24,318.086ZM355.59,318.086C355.59,318.086 336.138,318.086 336.138,318.086L336.138,436.328L355.59,436.328L355.59,318.086Z" style="fill:rgb(111,65,0);"/>
        </g>
    </g>
</svg>
